<?xml version="1.0" encoding="UTF-8"?>
<svg xmlns="http://www.w3.org/2000/svg" width="800" height="1000" viewBox="0 0 800 1000" role="img" aria-label="GCC pharmaceuticals market portrait illustration">
  <defs>
    <linearGradient id="bg" x1="0" y1="0" x2="0" y2="1">
      <stop offset="0%" stop-color="#0B1F3B"/>
      <stop offset="100%" stop-color="#1E4C7A"/>
    </linearGradient>
  </defs>
  <rect width="800" height="1000" fill="url(#bg)"/>
  <g opacity="0.35" fill="none" stroke="#7CC4FF" stroke-width="3">
    <path d="M520 220 L570 280 L620 340 L560 390 L500 340 Z"/>
    <circle cx="520" cy="220" r="9" fill="#F2C66A"/>
    <circle cx="570" cy="280" r="9" fill="#F2C66A"/>
    <circle cx="620" cy="340" r="9" fill="#F2C66A"/>
    <circle cx="560" cy="390" r="9" fill="#F2C66A"/>
    <circle cx="500" cy="340" r="9" fill="#F2C66A"/>
  </g>
  <circle cx="260" cy="350" r="95" fill="#EEF4FF"/>
  <rect x="170" y="430" width="360" height="420" rx="44" fill="#D9E6FF"/>
  <rect x="290" y="620" width="270" height="150" rx="18" fill="#0F2547"/>
  <g opacity="0.9">
    <rect x="80" y="730" width="90" height="190" rx="14" fill="#2F6DB5"/>
    <rect x="220" y="680" width="90" height="240" rx="14" fill="#3AA5A5"/>
    <rect x="360" y="640" width="90" height="280" rx="14" fill="#D4A64A"/>
    <rect x="500" y="700" width="90" height="220" rx="14" fill="#1E3F74"/>
  </g>
</svg>