<svg version="1.1" id="Layer_1" xmlns="http://www.w3.org/2000/svg" xmlns:xlink="http://www.w3.org/1999/xlink" x="0px" y="0px"
	 width="100%" viewBox="0 0 1024 640" enable-background="new 0 0 1024 640" xml:space="preserve">
<path fill="#000000" opacity="1.000000" stroke="none" 
	d="
M362.169434,272.640076 
	C354.852081,254.331161 350.954742,235.886459 355.569702,216.666000 
	C358.256836,205.474670 363.235138,195.137115 370.457184,186.050919 
	C381.458893,172.209305 395.158356,161.804886 411.683014,155.573425 
	C429.945312,148.686691 448.423157,149.347183 466.984314,155.077835 
	C477.397675,158.292877 486.696411,163.229874 494.371155,170.864868 
	C497.641205,174.117935 500.132202,173.678162 503.371460,171.281921 
	C513.199707,164.011368 523.686707,157.822418 535.408691,154.196320 
	C550.160339,149.632980 565.052063,148.263840 580.364990,152.177216 
	C608.159180,159.280273 627.725403,176.320908 640.607605,201.349503 
	C646.611389,213.014053 649.343323,225.855759 649.827026,238.910736 
	C650.142883,247.435104 646.145691,255.314041 643.635498,263.332672 
	C642.008057,268.531219 639.226135,273.363495 637.036377,278.392487 
	C635.479797,281.967194 632.214355,283.819641 629.415833,286.124603 
	C627.876343,287.392548 626.320190,286.587585 624.805603,285.699982 
	C621.841370,283.962830 618.582153,283.869965 615.202820,283.648254 
	C604.470764,282.944153 593.741455,283.548370 583.115356,284.413177 
	C578.624573,284.778625 573.952942,283.782379 569.295898,285.813721 
	C565.625854,287.414490 561.911499,285.852051 559.442139,281.520966 
	C553.124329,270.440002 548.246887,258.566772 540.792419,248.097672 
	C538.520752,244.907303 536.960327,241.110977 535.591980,237.401184 
	C533.712097,232.304489 529.923401,228.847641 526.153076,225.364029 
	C523.644836,223.046539 520.973206,223.409348 518.713562,225.968781 
	C516.384583,228.606873 514.729797,231.608353 513.358459,234.887634 
	C508.815216,245.751617 503.245148,256.129028 498.028168,266.658539 
	C493.738647,275.316132 489.690765,284.357330 486.318878,293.550720 
	C485.669556,295.321075 484.764618,296.832520 483.581329,298.251404 
	C481.259369,301.035797 479.062866,300.839508 477.188385,297.878296 
	C472.289978,290.140198 467.273193,282.465210 462.710938,274.530853 
	C460.283295,270.308868 457.678345,266.309906 454.418579,262.717163 
	C451.069824,259.026337 447.800507,259.040863 445.015015,263.128845 
	C443.068909,265.984863 440.810547,268.695221 439.959656,272.236450 
	C437.644745,281.870819 429.870117,283.755035 421.724548,284.478607 
	C408.120819,285.687073 394.474213,283.794159 380.813873,285.913574 
	C371.543396,287.351898 365.746613,281.253204 362.169434,272.640076 
z"/>
<path fill="#000000" opacity="1.000000" stroke="none" 
	d="
M531.444458,262.581512 
	C536.739075,272.980927 541.878418,283.044281 547.077881,293.076508 
	C550.543152,299.762756 553.596130,300.923767 560.764282,298.984283 
	C562.787842,298.436768 565.183472,298.304840 567.191528,298.823059 
	C576.800232,301.302887 586.617920,299.680450 596.295715,300.603485 
	C602.329834,301.179016 608.241211,300.165009 614.060303,298.568878 
	C615.627258,298.139069 617.193604,297.327728 618.911072,298.304047 
	C619.426453,300.484497 617.662659,301.608521 616.627380,302.963470 
	C607.083374,315.454010 595.191467,325.702240 584.142578,336.750488 
	C559.078308,361.813263 533.908630,386.770599 508.816711,411.805817 
	C502.277740,418.330048 501.585724,418.304962 494.860138,411.722595 
	C463.807831,381.331482 432.686310,351.011078 401.648438,320.605255 
	C396.422272,315.485474 391.088318,310.435242 386.756104,304.478058 
	C385.707336,303.035919 384.229065,301.786133 384.477631,299.408447 
	C388.945557,297.383667 393.690674,298.971008 398.018127,299.495422 
	C409.799316,300.923248 421.588806,299.321136 433.344666,300.485352 
	C439.917908,301.136353 442.656677,298.556671 445.282684,290.884888 
	C446.013336,288.750336 446.009125,285.929657 449.018494,285.607117 
	C452.099487,285.276947 454.243591,287.315369 455.253723,289.794006 
	C459.948212,301.312775 468.682495,310.345886 474.302277,321.292023 
	C477.886963,328.274323 482.163300,330.044586 486.863586,326.896881 
	C490.853882,324.224731 491.961212,319.460632 493.617065,315.507202 
	C501.312805,297.133606 509.130920,278.832550 518.212097,261.091278 
	C518.818604,259.906494 519.325317,258.657867 520.044434,257.546326 
	C521.338684,255.545853 522.950012,253.666092 525.496216,253.618774 
	C528.339844,253.565964 528.461304,256.340973 529.419312,258.157928 
	C530.117065,259.481293 530.687500,260.871704 531.444458,262.581512 
z"/>
<path fill="#000000" opacity="1.000000" stroke="none" 
	d="
M251.909378,465.831268 
	C272.814636,452.838013 309.208160,456.364899 326.611115,482.017761 
	C334.713989,493.961823 336.530975,506.983856 334.698395,521.053528 
	C332.207001,540.181885 320.830719,552.589233 304.358795,560.225891 
	C282.039856,570.573181 243.346924,564.914368 230.688278,535.597473 
	C221.501816,514.322083 223.891953,495.476410 237.352615,477.569946 
	C240.996887,472.721985 245.972366,468.793213 251.909378,465.831268 
M304.936310,536.432983 
	C305.829407,535.230164 306.816589,534.085571 307.601074,532.815674 
	C315.719727,519.674316 316.727386,505.977875 308.845215,492.659973 
	C302.216553,481.460052 291.509186,476.336731 278.453766,477.213287 
	C268.584442,477.875916 259.903625,482.010468 253.942764,489.870819 
	C248.162125,497.493500 246.223190,506.612976 247.015289,516.301880 
	C248.508301,534.564209 261.539215,545.088562 278.792267,546.885376 
	C289.140656,547.963135 297.187805,543.584290 304.936310,536.432983 
z"/>
<path fill="#000000" opacity="1.000000" stroke="none" 
	d="
M74.221191,555.291016 
	C66.728195,561.494324 58.043869,562.885803 49.139271,563.099670 
	C37.823872,563.371399 26.497244,563.143616 15.178315,563.317261 
	C11.015308,563.381104 9.720421,562.000244 10.187555,557.675903 
	C11.198532,548.317139 10.118029,538.862122 10.453471,529.517517 
	C10.717067,522.174438 9.472080,514.742676 11.250026,507.392792 
	C12.089995,503.920410 11.192693,500.127319 10.946641,496.608093 
	C10.491307,490.095428 10.144053,483.566895 9.939570,477.048767 
	C9.821085,473.271912 10.218243,469.394714 11.009624,465.696716 
	C11.833753,461.845673 14.042396,459.344482 18.723207,459.607330 
	C29.680515,460.222504 40.717361,459.909241 51.609612,461.047424 
	C61.085739,462.037659 70.473724,463.605255 77.656242,471.623413 
	C84.805016,479.604034 83.736702,494.172058 79.316559,501.494049 
	C77.978584,503.710388 75.565056,504.588104 73.234200,505.601837 
	C69.062012,507.416351 68.690323,509.500122 71.794991,512.703918 
	C73.058945,514.008301 74.424377,515.535034 76.046402,516.117615 
	C84.191017,519.042847 85.319084,526.391968 85.837242,533.123718 
	C86.392418,540.336426 84.019875,547.269958 77.986305,552.236816 
	C76.829933,553.188721 75.681290,554.150024 74.221191,555.291016 
M47.474358,518.495605 
	C44.329742,519.154114 41.190933,518.384277 38.055237,518.459778 
	C32.713451,518.588318 31.124401,520.108887 31.032976,525.291382 
	C30.948126,530.101013 31.084883,534.915833 31.191082,539.726929 
	C31.240290,541.956177 31.529188,544.515747 34.313297,544.610962 
	C41.900330,544.870605 49.610504,545.998779 56.954185,542.994934 
	C62.387165,540.772522 64.317116,536.867126 63.398582,531.060242 
	C62.025253,522.378052 55.909519,519.584351 47.474358,518.495605 
M52.602329,479.611725 
	C48.309917,479.190063 44.025261,478.642761 39.723213,478.377136 
	C33.765297,478.009308 30.277378,481.206940 30.118998,487.188507 
	C30.017857,491.008423 30.272121,494.836517 30.305822,498.661530 
	C30.340263,502.570618 32.418964,504.571777 36.167179,504.533569 
	C40.645485,504.487976 45.119785,504.078705 49.596504,503.839783 
	C56.905815,503.449615 59.548588,500.673431 60.849998,491.996826 
	C61.792965,485.709961 59.656410,482.237183 52.602329,479.611725 
z"/>
<path fill="#000000" opacity="1.000000" stroke="none" 
	d="
M463.257355,491.886230 
	C462.877563,482.827179 462.406433,474.198486 463.517944,465.553864 
	C464.246155,459.890259 468.123169,459.238953 472.546112,459.314850 
	C478.964996,459.424957 482.278564,461.734406 483.247162,466.223297 
	C484.422089,471.668457 483.483704,477.153351 483.662231,482.610809 
	C484.117432,496.527679 483.557373,510.478668 484.050049,524.393127 
	C484.469604,536.242004 483.014862,548.004639 483.244843,559.828491 
	C483.321472,563.766968 481.344727,564.919128 477.813171,563.256897 
	C476.029602,562.417358 474.188934,561.380798 472.841980,559.982605 
	C462.457764,549.203247 451.200134,539.314880 441.248413,528.068481 
	C434.654114,520.616272 426.907196,514.182129 419.648529,507.321594 
	C418.559662,506.292389 417.233826,505.101135 415.685577,505.771088 
	C413.745209,506.610687 414.187836,508.585541 414.466583,510.184906 
	C416.512939,521.925903 415.322540,533.748108 415.217834,545.524292 
	C415.178192,549.983704 416.964111,554.398682 415.413605,558.896912 
	C414.982056,560.148926 415.084381,561.671204 413.594269,562.181152 
	C408.490662,563.927612 403.259216,564.734314 397.879974,563.800171 
	C396.069916,563.485901 395.576904,562.051941 395.532867,560.438599 
	C395.079071,543.822754 394.646576,527.219238 395.282959,510.583344 
	C395.835938,496.127350 395.519531,481.639526 395.755005,467.168518 
	C395.795532,464.679932 394.471985,461.268127 397.438080,459.902039 
	C400.721100,458.389954 403.135223,461.257782 405.152130,463.304352 
	C416.133606,474.447205 427.007568,485.697723 437.809998,497.014771 
	C443.782867,503.272217 449.570343,509.707855 455.385468,516.113953 
	C457.464661,518.404480 459.738770,520.127075 463.284058,520.149414 
	C463.284058,510.718140 463.284058,501.510406 463.257355,491.886230 
z"/>
<path fill="#000000" opacity="1.000000" stroke="none" 
	d="
M862.159668,480.002991 
	C861.933472,497.803772 862.769531,515.106750 861.264771,532.411194 
	C860.039307,546.503723 847.325745,561.534729 833.319946,563.853516 
	C822.068787,565.716309 810.813293,566.171204 799.820435,562.035828 
	C787.714844,557.481873 779.732849,549.398132 777.468323,536.339417 
	C774.083801,516.821960 776.370117,497.128693 775.714722,477.525940 
	C775.592468,473.867584 775.594666,470.192841 775.791565,466.539215 
	C776.022888,462.246490 778.272278,459.782867 782.780090,459.783173 
	C783.279663,459.783203 783.779114,459.762909 784.278748,459.755920 
	C795.413025,459.600311 796.738281,461.474792 795.738464,472.709808 
	C795.123291,479.622986 796.429382,486.620087 795.985168,493.621582 
	C795.312134,504.228699 795.725159,514.848755 796.197266,525.459778 
	C796.810608,539.243347 803.348083,545.697266 817.145813,545.942688 
	C820.298401,545.998840 823.521484,546.020142 826.602112,545.456299 
	C835.993225,543.737488 841.471985,536.254578 841.575134,524.740295 
	C841.737854,506.589752 841.588257,488.436584 841.679626,470.285065 
	C841.697266,466.776001 840.497681,462.417175 844.964172,460.670898 
	C849.787964,458.784943 854.856567,459.286743 859.519958,461.444153 
	C861.822205,462.509216 862.229004,465.096802 862.227661,467.517517 
	C862.225403,471.513123 862.169434,475.508759 862.159668,480.002991 
z"/>
<path fill="#000000" opacity="1.000000" stroke="none" 
	d="
M704.576172,564.032715 
	C697.688354,563.238708 694.084595,558.739014 690.716125,553.886230 
	C686.165955,547.330688 681.626892,540.765930 676.972473,534.284546 
	C673.621399,529.617981 672.241028,529.484314 668.782837,534.049805 
	C663.771362,540.665894 658.995911,547.467957 654.300720,554.314819 
	C647.243591,564.605957 643.634949,565.833679 630.527710,563.285645 
	C626.009094,562.407166 625.585388,560.242310 628.188232,556.601624 
	C637.560730,543.491699 647.639526,530.926270 657.477295,518.174011 
	C659.931213,514.993103 659.532959,511.617676 657.231506,508.494049 
	C654.368958,504.609100 651.511536,500.709656 648.440125,496.991455 
	C640.794250,487.735504 634.998413,477.222839 628.194763,467.396149 
	C625.431213,463.404785 626.478638,461.517700 631.131042,460.551178 
	C642.272400,458.236542 647.533569,460.350433 654.074524,469.851776 
	C658.977478,476.973663 663.797668,484.152679 668.721130,491.260254 
	C672.056519,496.075409 674.518677,496.142731 677.731384,491.221954 
	C682.266296,484.275940 687.347168,477.713837 691.395447,470.412354 
	C696.247864,461.660797 704.683228,457.666046 713.445740,459.108154 
	C719.337280,460.077698 720.479858,462.008392 717.458557,467.122864 
	C711.447998,477.297638 704.776489,487.042786 697.483826,496.359131 
	C694.205139,500.547607 691.122864,504.889679 687.944336,509.156708 
	C685.683716,512.191528 686.208679,514.960083 688.523926,517.748474 
	C698.307800,529.532227 707.318604,541.898010 715.995361,554.510986 
	C716.748840,555.606201 717.507568,556.709351 718.133484,557.878601 
	C719.770630,560.936890 719.206055,562.890747 715.432190,563.501038 
	C711.963074,564.061890 708.514587,564.499817 704.576172,564.032715 
z"/>
<path fill="#000000" opacity="1.000000" stroke="none" 
	d="
M934.084961,509.987518 
	C920.514526,503.421570 920.210327,485.118256 926.307007,474.050659 
	C935.138977,458.017426 949.433289,458.119843 964.382874,459.249023 
	C969.158020,459.609711 973.854736,460.963654 978.598450,461.799896 
	C982.702454,462.523407 984.804626,464.738037 984.274475,469.052795 
	C984.254272,469.217133 984.267517,469.385620 984.264893,469.552155 
	C984.080383,481.292297 980.676575,483.281433 969.484741,479.378265 
	C963.273987,477.212280 956.663391,475.784943 949.955322,478.095825 
	C945.850098,479.510010 943.082642,482.182892 942.147217,486.388763 
	C941.198853,490.652863 943.360657,493.754395 946.577759,496.274597 
	C953.263611,501.512268 961.341248,503.934204 969.049255,506.941742 
	C978.000671,510.434448 984.790649,515.619019 988.844360,524.636108 
	C995.326721,539.055298 986.479492,558.191650 971.799561,562.595398 
	C956.497864,567.185669 941.450562,564.816895 926.774597,559.745667 
	C920.089905,557.435730 918.645386,545.597534 924.289551,541.537476 
	C926.417725,540.006531 929.211182,540.495789 931.550415,541.296204 
	C938.193115,543.568848 945.078369,544.703064 951.910645,546.128052 
	C960.137329,547.843994 966.279602,545.506775 969.291260,539.311951 
	C971.503296,534.761841 970.680542,531.130432 966.702209,527.867493 
	C961.363586,523.489014 955.229797,520.508423 948.957581,517.771301 
	C943.927063,515.575989 938.764771,513.633972 934.084961,509.987518 
z"/>
<path fill="#000000" opacity="1.000000" stroke="none" 
	d="
M569.930054,486.107574 
	C569.237732,507.023987 570.660217,527.467651 569.586365,547.907654 
	C569.388245,551.678284 570.048523,555.478821 569.309448,559.299683 
	C568.935303,561.233765 568.027344,562.317322 566.297546,562.798828 
	C564.699768,563.243652 563.064575,563.591370 561.424255,563.839722 
	C551.561768,565.333252 550.317139,564.113831 549.725464,554.365234 
	C548.021057,526.282776 549.673401,498.176239 548.961731,470.087677 
	C548.870300,466.478424 549.059937,462.048462 552.874756,460.481750 
	C557.176331,458.715179 562.100159,458.948608 566.531189,460.675720 
	C568.921631,461.607483 569.206482,464.388550 569.316284,466.712280 
	C569.614075,473.011902 569.736328,479.319824 569.930054,486.107574 
z"/>
<path fill="#000000" opacity="1.000000" stroke="none" 
	d="
M157.621368,564.115845 
	C147.722427,564.463074 145.872498,562.974487 145.820282,553.512878 
	C145.663269,525.065186 145.690170,496.616272 145.724762,468.167938 
	C145.732193,462.064972 148.155258,459.830444 154.262589,459.733765 
	C165.717392,459.552460 166.185242,459.937531 166.227356,471.152069 
	C166.301041,490.774445 166.070633,510.400909 166.415482,530.017822 
	C166.558563,538.156616 167.026321,546.253662 166.273224,554.398682 
	C165.612213,561.547791 165.192169,562.342773 157.621368,564.115845 
z"/>
</svg>